<?xml version="1.0" encoding="utf-8"?>
<!-- Generator: Adobe Illustrator 22.0.1, SVG Export Plug-In . SVG Version: 6.00 Build 0)  -->
<svg version="1.1" id="Capa_1" xmlns="http://www.w3.org/2000/svg" xmlns:xlink="http://www.w3.org/1999/xlink" x="0px" y="0px"
	 viewBox="0 0 121.1 117" style="enable-background:new 0 0 121.1 117;" xml:space="preserve">
<style type="text/css">
	.st0{fill:#FFFFFF;fill-opacity:0.2;stroke:#FFCE00;stroke-width:4;stroke-miterlimit:10;}
	.st1{fill:#FFCE00;}
	.st2{fill:#FFFFFF;fill-opacity:0.2;stroke:#FFCE00;stroke-width:3.8333;stroke-miterlimit:10;}
	.st3{clip-path:url(#SVGID_2_);}
	.st4{fill:#FFFFFF;}
	.st5{fill:#242424;}
	.st6{fill:#262626;}
	.st7{fill:#FF3A4B;}
	.st8{fill:#00C114;}
	.st9{fill:#BCBCBC;}
	.st10{fill:#00B200;}
	.st11{fill:#000EB6;}
	.st12{fill:#2A2A2A;}
	.st13{fill:#FCCE00;}
	.st14{fill:#001FFF;}
	.st15{fill:#AA2737;}
	.st16{fill:#808080;}
</style>
<g>
	<path class="st15" d="M116.2,84.4L77.1,15C72.9,7.5,67.1,3.4,60.6,3.4C54.1,3.4,48.2,7.5,44,15L4.9,84.4
		c-4.2,7.4-4.6,14.6-1.3,20.3c3.3,5.7,9.9,8.8,18.4,8.8h77.1c8.5,0,15-3.1,18.4-8.8C120.8,99.1,120.4,91.8,116.2,84.4z M109.7,100.2
		c-1.6,2.8-5.4,4.3-10.5,4.3H22c-5.1,0-8.9-1.6-10.5-4.3c-1.6-2.8-1.1-6.9,1.4-11.3l39.1-69.4c2.5-4.4,5.6-6.9,8.6-6.9
		c3,0,6.2,2.5,8.6,6.9l39.1,69.4C110.8,93.3,111.3,97.4,109.7,100.2z"/>
	<path class="st15" d="M60.6,81.1c-3.3,0-6,2.7-6,6c0,3.3,2.7,6,6,6c3.3,0,6-2.7,6-6C66.6,83.8,63.9,81.1,60.6,81.1z"/>
	<path class="st15" d="M60.6,37.7c-3.3,0-6,2.7-6,6c0,0.2,0,0.3,0,0.5h0l2.4,29h0c0.2,1.8,1.7,3.3,3.6,3.3c1.9,0,3.4-1.5,3.6-3.3h0
		l2.4-29h0c0-0.2,0-0.3,0-0.5C66.6,40.4,63.9,37.7,60.6,37.7z"/>
</g>
</svg>
