<?xml version="1.0" encoding="utf-8"?>
<!-- Generator: Adobe Illustrator 22.0.1, SVG Export Plug-In . SVG Version: 6.00 Build 0)  -->
<svg version="1.1" id="Capa_1" xmlns="http://www.w3.org/2000/svg" xmlns:xlink="http://www.w3.org/1999/xlink" x="0px" y="0px"
	 viewBox="0 0 26 44.1" style="enable-background:new 0 0 26 44.1;" xml:space="preserve">
<style type="text/css">
	.st0{fill:#FFFFFF;fill-opacity:0.2;stroke:#FFCE00;stroke-width:4;stroke-miterlimit:10;}
	.st1{fill:#FFCE00;}
	.st2{fill:#FFFFFF;fill-opacity:0.2;stroke:#FFCE00;stroke-width:3.8333;stroke-miterlimit:10;}
	.st3{clip-path:url(#SVGID_2_);}
	.st4{fill:#FFFFFF;}
	.st5{fill:#242424;}
	.st6{fill:#262626;}
	.st7{fill:#FF3A4B;}
	.st8{fill:#00C114;}
	.st9{fill:#BCBCBC;}
</style>
<g>
	<path class="st9" d="M17.6,34.4H8.4v-1.3c0.3-0.2,0.7-0.3,1-0.4c0.4-0.1,0.8-0.2,1.2-0.4V20l-2.2-0.3v-1.3c0.3-0.1,0.8-0.3,1.3-0.4
		c0.5-0.1,1-0.3,1.6-0.3c0.5-0.1,1.1-0.2,1.6-0.3c0.5-0.1,1-0.2,1.4-0.2h1.1v15.1c0.4,0.1,0.9,0.2,1.2,0.3c0.4,0.1,0.7,0.3,1,0.4
		L17.6,34.4z M10.1,12.1c0-0.8,0.3-1.4,0.8-1.8c0.5-0.4,1.2-0.7,2.1-0.7c0.8,0,1.5,0.2,2.1,0.7s0.8,1.1,0.8,1.8
		c0,0.8-0.3,1.4-0.8,1.8s-1.2,0.7-2.1,0.7c-0.8,0-1.5-0.2-2.1-0.7S10.1,12.9,10.1,12.1z"/>
</g>
</svg>
