<?xml version="1.0" encoding="utf-8"?>
<!-- Generator: Adobe Illustrator 22.0.1, SVG Export Plug-In . SVG Version: 6.00 Build 0)  -->
<svg version="1.1" id="Capa_1" xmlns="http://www.w3.org/2000/svg" xmlns:xlink="http://www.w3.org/1999/xlink" x="0px" y="0px"
	 viewBox="0 0 38.1 36.8" style="enable-background:new 0 0 38.1 36.8;" xml:space="preserve">
<style type="text/css">
	.st0{fill:#FFFFFF;fill-opacity:0.2;stroke:#FFCE00;stroke-width:4;stroke-miterlimit:10;}
	.st1{fill:#FFCE00;}
	.st2{fill:#FFFFFF;fill-opacity:0.2;stroke:#FFCE00;stroke-width:3.8333;stroke-miterlimit:10;}
	.st3{clip-path:url(#SVGID_2_);}
	.st4{fill:#FFFFFF;}
	.st5{fill:#242424;}
	.st6{fill:#262626;}
	.st7{fill:#FF3A4B;}
	.st8{fill:#00C114;}
	.st9{fill:#BCBCBC;}
	.st10{fill:#00B200;}
	.st11{fill:#000EB6;}
	.st12{fill:#2A2A2A;}
	.st13{fill:#FCCE00;}
	.st14{fill:#001FFF;}
	.st15{fill:#808080;}
</style>
<g transform="translate(0,-952.36218)">
	<path class="st15" d="M3.9,959.5c-0.5,0-1,0.2-1.4,0.4l15.3,13c0.7,0.6,1.6,0.6,2.3,0l15.3-13c-0.4-0.3-0.9-0.4-1.4-0.4H3.9z
		 M1.5,961.3c-0.1,0.3-0.1,0.6-0.1,0.9v17.3c0,0.5,0.2,1,0.4,1.4l11-10L1.5,961.3z M36.6,961.3l-11.2,9.5l10.9,10
		c0.3-0.4,0.4-0.9,0.4-1.4v-17.3C36.8,961.8,36.7,961.6,36.6,961.3z M24.1,971.9l-2.7,2.3c-1.3,1.1-3.3,1.1-4.6,0l-2.7-2.3
		l-10.9,9.9c0.2,0.1,0.5,0.1,0.8,0.1h30.2c0.3,0,0.5,0,0.8-0.1C35,981.9,24.1,971.9,24.1,971.9z"/>
</g>
</svg>
