<?xml version="1.0" encoding="utf-8"?>
<!-- Generator: Adobe Illustrator 22.0.1, SVG Export Plug-In . SVG Version: 6.00 Build 0)  -->
<svg version="1.1" id="Capa_1" xmlns="http://www.w3.org/2000/svg" xmlns:xlink="http://www.w3.org/1999/xlink" x="0px" y="0px"
	 viewBox="0 0 121.1 117" style="enable-background:new 0 0 121.1 117;" xml:space="preserve">
<style type="text/css">
	.st0{fill:#FFFFFF;fill-opacity:0.2;stroke:#FFCE00;stroke-width:4;stroke-miterlimit:10;}
	.st1{fill:#FFCE00;}
	.st2{fill:#FFFFFF;fill-opacity:0.2;stroke:#FFCE00;stroke-width:3.8333;stroke-miterlimit:10;}
	.st3{clip-path:url(#SVGID_2_);}
	.st4{fill:#FFFFFF;}
	.st5{fill:#242424;}
	.st6{fill:#262626;}
	.st7{fill:#FF3A4B;}
	.st8{fill:#00C114;}
	.st9{fill:#BCBCBC;}
	.st10{fill:#00B200;}
	.st11{fill:#000EB6;}
	.st12{fill:#2A2A2A;}
	.st13{fill:#FCCE00;}
</style>
<path d="M93.5,48.2L97.9,38c0.3-0.6,0.2-1.3-0.1-1.8c-0.3-0.6-0.9-1-1.7-1.1l-11.8-1.5l-0.1-10.5c0-0.7-0.3-1.3-0.9-1.7
	c-0.6-0.4-1.3-0.5-1.9-0.3l-11.8,3.6l-7.6-8.4c-0.4-0.4-0.9-0.7-1.5-0.7c0,0,0,0,0,0c-0.6,0-1.2,0.3-1.7,0.8l-7.6,8.3l-11.8-3.6
	c-0.7-0.2-1.3-0.1-1.9,0.3c-0.5,0.4-0.9,1-0.9,1.7l-0.1,10.5L25,35.1c-0.7,0.1-1.3,0.5-1.6,1.1c-0.3,0.6-0.4,1.3-0.1,1.9l4.3,10.1
	L18.4,57c-0.4,0.4-0.6,0.9-0.7,1.5c0,0.6,0.2,1.1,0.6,1.5l9.4,8.9L23.3,79c-0.3,0.6-0.2,1.3,0.1,1.8c0.3,0.6,1,1,1.7,1.1l11.8,1.5
	l0.1,10.5c0,0.7,0.3,1.3,0.9,1.7c0.6,0.4,1.3,0.5,1.9,0.3l11.8-3.6l7.6,8.4c0.4,0.4,0.9,0.7,1.5,0.7c0,0,0,0,0,0
	c0.6,0,1.2-0.3,1.7-0.8l7.6-8.3l11.8,3.6c0.7,0.2,1.3,0.1,1.9-0.3c0.5-0.4,0.9-1,0.9-1.7l0.1-10.5l11.8-1.5c0.7-0.1,1.3-0.5,1.6-1.1
	c0.3-0.6,0.4-1.3,0.1-1.9l-4.3-10.1l9.3-8.8c0.4-0.4,0.6-0.9,0.7-1.5c0-0.6-0.2-1.1-0.6-1.5L93.5,48.2z M89.6,66.7
	c-0.8,0.7-1,1.7-0.6,2.5l3.8,8.8l-10.5,1.3c-1.1,0.8-2.1,1.8-2.1,2.2L80.1,91l-10.4-3.1c-0.8-0.2-1.6,0-2.2,0.6l-6.9,7.6l-6.8-7.4
	c-0.6-0.7-1.5-1-2.3-0.7L41.1,91L41,81.8c0.1-1.2-0.7-2.2-1.9-2.4L28.3,78l3.8-8.8c0.4-0.8,0.2-1.8-0.5-2.3l-8.7-8.4l8.6-8.2
	c0.8-0.7,1-1.7,0.6-2.5l-3.8-8.9l10.8-1.3c1-0.2,1.9-1.1,1.9-2.1l0.1-9.6l10.4,3.1c0.8,0.2,1.6,0,2.2-0.6l6.9-7.6l6.8,7.4
	c0.6,0.7,1.5,1,2.3,0.7L80.1,26l0.1,9.3c-0.1,1.2,0.7,2.2,1.9,2.4l10.8,1.3L89,47.8c-0.4,0.8-0.2,1.8,0.5,2.4l8.7,8.4L89.6,66.7z"/>
<polygon points="69.4,44.4 60.6,53.3 51.7,44.4 46.5,49.6 55.3,58.5 46.5,67.4 51.7,72.6 60.6,63.7 69.4,72.6 74.7,67.4 65.8,58.5 
	74.7,49.6 "/>
</svg>
