<?xml version="1.0" encoding="utf-8"?>
<!-- Generator: Adobe Illustrator 22.0.1, SVG Export Plug-In . SVG Version: 6.00 Build 0)  -->
<svg version="1.1" id="Capa_1" xmlns="http://www.w3.org/2000/svg" xmlns:xlink="http://www.w3.org/1999/xlink" x="0px" y="0px"
	 viewBox="0 0 38.1 36.8" style="enable-background:new 0 0 38.1 36.8;" xml:space="preserve">
<style type="text/css">
	.st0{fill:#FFFFFF;fill-opacity:0.2;stroke:#FFCE00;stroke-width:4;stroke-miterlimit:10;}
	.st1{fill:#FFCE00;}
	.st2{fill:#FFFFFF;fill-opacity:0.2;stroke:#FFCE00;stroke-width:3.8333;stroke-miterlimit:10;}
	.st3{clip-path:url(#SVGID_2_);}
	.st4{fill:#FFFFFF;}
	.st5{fill:#242424;}
	.st6{fill:#262626;}
	.st7{fill:#FF3A4B;}
	.st8{fill:#00C114;}
	.st9{fill:#BCBCBC;}
	.st10{fill:#00B200;}
	.st11{fill:#000EB6;}
	.st12{fill:#2A2A2A;}
	.st13{fill:#FCCE00;}
	.st14{fill:#001FFF;}
</style>
<g transform="translate(8.000000, 5.000000)">
	<g>
		<path class="st14" d="M25.4,15.6c0,7.9-6.4,14.3-14.3,14.3S-3.2,23.5-3.2,15.6S3.2,1.4,11.1,1.4v3.6C5.1,4.9,0.3,9.7,0.3,15.6
			s4.8,10.7,10.7,10.7s10.7-4.8,10.7-10.7H25.4z"/>
		<rect x="10.9" y="1.4" class="st14" width="3.8" height="3.6"/>
		<g transform="translate(8.535534, 4.035534) rotate(45.000000) translate(-8.535534, -4.035534) translate(6.035534, 1.535534)">
			
				<rect x="2.6" y="-7.7" transform="matrix(2.535181e-06 1 -1 2.535181e-06 1.1518 -7.6085)" class="st14" width="3.6" height="8.9"/>
			
				<rect x="2.6" y="-2.3" transform="matrix(2.535182e-06 1 -1 2.535182e-06 6.5101 -7.6085)" class="st14" width="8.9" height="3.6"/>
		</g>
	</g>
</g>
</svg>
