<?xml version="1.0" encoding="utf-8"?>
<!-- Generator: Adobe Illustrator 22.0.1, SVG Export Plug-In . SVG Version: 6.00 Build 0)  -->
<svg version="1.1" id="Capa_1" xmlns="http://www.w3.org/2000/svg" xmlns:xlink="http://www.w3.org/1999/xlink" x="0px" y="0px"
	 viewBox="0 0 115 115" style="enable-background:new 0 0 115 115;" xml:space="preserve">
<style type="text/css">
	.st0{fill:#FFFFFF;fill-opacity:0.2;stroke:#FFCE00;stroke-width:4;stroke-miterlimit:10;}
	.st1{fill:#FFCE00;}
	.st2{fill:#FFFFFF;fill-opacity:0.2;stroke:#FFCE00;stroke-width:3.8333;stroke-miterlimit:10;}
	.st3{clip-path:url(#SVGID_2_);}
	.st4{fill:#FFFFFF;}
</style>
<g>
	<g>
		<path class="st4" d="M56.1,72.2c0,2.7-0.6,4.9-2.1,6.8c-0.9,1.3-2.2,2.2-3.9,2.7c-0.9,0.3-2,0.4-3.2,0.4c-2.2,0-4.1-0.6-5.6-1.7
			c-1.2-0.9-2.2-2.2-2.9-3.7c-0.7-1.6-1.1-3.4-1.3-5.4l5.5-0.4c0.2,2.2,0.8,3.8,1.8,4.8c0.7,0.8,1.5,1.1,2.4,1.1
			c1.3,0,2.3-0.7,3-1.9c0.4-0.6,0.6-1.4,0.6-2.5c0-1.6-0.7-3.2-2.2-4.7C47,66.7,45.3,65.1,43,63c-1.9-1.9-3.3-3.5-4.1-5
			c-0.8-1.6-1.3-3.4-1.3-5.4c0-3.5,1.2-6.1,3.5-7.9c1.4-1.1,3.2-1.6,5.4-1.6c2,0,3.8,0.4,5.3,1.4c1.1,0.7,2.1,1.7,2.8,3
			c0.7,1.3,1.1,2.7,1.3,4.4l-5.5,1c-0.2-1.6-0.6-2.8-1.3-3.6c-0.5-0.6-1.3-0.9-2.3-0.9c-1.1,0-1.8,0.5-2.4,1.4
			c-0.5,0.8-0.7,1.7-0.7,2.8c0,1.7,0.7,3.5,2.2,5.3c0.6,0.7,1.4,1.5,2.6,2.4c1.3,1.1,2.2,1.9,2.6,2.3c1.4,1.4,2.5,2.8,3.3,4.2
			c0.4,0.6,0.7,1.2,0.9,1.8C55.7,70,56,71.2,56.1,72.2"/>
		<path class="st4" d="M69,82.2c-2.5,0-4.6-0.9-6.4-2.6c-1.8-1.7-2.6-3.9-2.6-6.4V52.6c0-2.5,0.9-4.6,2.6-6.4
			c1.8-1.8,3.9-2.6,6.4-2.6c2.5,0,4.6,0.9,6.4,2.6c1.7,1.8,2.6,3.9,2.6,6.4v4.3H72v-4.4c0-0.9-0.3-1.7-1-2.3c-0.6-0.6-1.4-1-2.3-1
			c-0.9,0-1.7,0.3-2.3,1c-0.6,0.6-1,1.4-1,2.3v20.6c0,0.9,0.3,1.7,1,2.3c0.6,0.6,1.4,0.9,2.3,0.9c0.9,0,1.7-0.3,2.3-0.9
			c0.6-0.6,1-1.4,1-2.3v-5.2h5.9v5.3c0,2.5-0.9,4.6-2.6,6.4C73.5,81.3,71.4,82.2,69,82.2"/>
		<path class="st4" d="M92.1,32.3L92.1,32.3c-2,1.6-2.5,4.5-1,6.6c7.9,11.4,9.9,26.4,4,40c-9.1,21-33.5,30.7-54.5,21.7
			c-21-9.1-30.7-33.5-21.7-54.5c5.4-12.6,16.4-21.1,28.8-24l3.5,11.7c0.3,1.1,1.1,1.2,1.8,0.3l14.6-20.9c0.6-0.9,0.3-2-0.7-2.4
			L43.2,1.4c-1.1-0.4-1.6,0.1-1.3,1.2l3.2,10.6C30.2,17,17.2,27.3,10.6,42.5c-11.2,25.9,0.8,55.9,26.6,67.1
			c25.9,11.2,55.9-0.8,67.1-26.6c7.3-16.9,4.7-35.5-5.2-49.6C97.6,31,94.4,30.5,92.1,32.3z"/>
	</g>
</g>
</svg>
