<?xml version="1.0" encoding="utf-8"?>
<!-- Generator: Adobe Illustrator 22.0.1, SVG Export Plug-In . SVG Version: 6.00 Build 0)  -->
<svg version="1.1" id="Capa_1" xmlns="http://www.w3.org/2000/svg" xmlns:xlink="http://www.w3.org/1999/xlink" x="0px" y="0px"
	 viewBox="0 0 38.1 36.8" style="enable-background:new 0 0 38.1 36.8;" xml:space="preserve">
<style type="text/css">
	.st0{fill:#FFFFFF;fill-opacity:0.2;stroke:#FFCE00;stroke-width:4;stroke-miterlimit:10;}
	.st1{fill:#FFCE00;}
	.st2{fill:#FFFFFF;fill-opacity:0.2;stroke:#FFCE00;stroke-width:3.8333;stroke-miterlimit:10;}
	.st3{clip-path:url(#SVGID_2_);}
	.st4{fill:#FFFFFF;}
	.st5{fill:#242424;}
	.st6{fill:#262626;}
	.st7{fill:#FF3A4B;}
	.st8{fill:#00C114;}
	.st9{fill:#BCBCBC;}
	.st10{fill:#00B200;}
	.st11{fill:#000EB6;}
	.st12{fill:#2A2A2A;}
	.st13{fill:#FCCE00;}
	.st14{fill:#001FFF;}
	.st15{fill:#808080;}
</style>
<path class="st4" d="M29.4,19c-3.4-3.4-6.7-6.7-10.1-10.1c-1-1-2.2-1.5-3.6-1.5c-1.8,0-3.6,0-5.4,0c-1.5,0-2.2,0.7-2.2,2.2
	c0,0.9,0,1.8,0,2.7c0,0.9,0,1.9,0,2.8c0,1.3,0.5,2.4,1.4,3.3c3.4,3.4,6.8,6.8,10.2,10.2c0.9,0.9,1.9,0.9,2.8,0.1
	c2.3-2.3,4.7-4.6,7-7C30.3,20.9,30.3,19.9,29.4,19z M12.7,13.9c-1,0-1.9-0.8-1.9-1.8c0-1,0.8-1.9,1.9-1.9c1,0,1.8,0.8,1.8,1.9
	C14.6,13.1,13.7,13.9,12.7,13.9z"/>
</svg>
