<?xml version="1.0" encoding="utf-8"?>
<!-- Generator: Adobe Illustrator 22.0.1, SVG Export Plug-In . SVG Version: 6.00 Build 0)  -->
<svg version="1.1" id="Capa_1" xmlns="http://www.w3.org/2000/svg" xmlns:xlink="http://www.w3.org/1999/xlink" x="0px" y="0px"
	 viewBox="0 0 38.1 36.8" style="enable-background:new 0 0 38.1 36.8;" xml:space="preserve">
<style type="text/css">
	.st0{fill:#2A2A2A;}
</style>
<g>
	<path class="st0" d="M20.2,5c0.4,0,1,0.1,1.6,0.1c1.4,0.2,2.7,0.5,4,1c1.9,0.6,3.6,1.5,5.3,2.7s3.3,2.6,4.6,4.3
		c0.5,0.6,0.5,1.1-0.1,1.7c-0.4,0.4-0.7,0.7-1.1,1.1c-0.3,0.4-0.9,0.4-1.3,0.1l-0.1-0.1c-2-2.6-4.5-4.5-7.6-5.8
		c-7.2-3-15.5-0.8-20.4,5.5c-0.7,0.9-1,0.9-1.8,0.1c-0.3-0.3-0.6-0.6-0.9-1c-0.4-0.4-0.4-1.1,0-1.6c1.1-1.4,3.5-4,7-5.8
		c0,0,3.1-1.5,6.2-2.1c0.5-0.1,1-0.1,1-0.1c0.2,0,0.6-0.1,1.2-0.1c0.3,0,0.8,0,1.3,0L20.2,5z"/>
	<path class="st0" d="M19.9,31.7c-0.2,0.1-0.9,0.3-1.6,0c-0.9-0.3-1.6-1.3-1.5-2.4s0.9-1.9,2-2.1c0.9-0.1,1.6,0.3,2.1,1
		c0.5,0.8,0.5,1.8,0,2.6c-0.2,0.3-0.5,0.6-0.9,0.8L19.9,31.7z"/>
	<path class="st0" d="M19.1,12.5c4.8,0.1,8.7,2.2,11.6,6c0.4,0.5,0.3,1.1-0.1,1.5s-0.8,0.9-1.2,1.3c-0.5,0.5-0.9,0.4-1.2-0.1
		c-1-1.5-2.3-2.7-3.8-3.6c-4.9-2.7-10.9-1.3-14.1,3.4c-0.1,0.1-0.1,0.2-0.2,0.3c-0.3,0.3-0.7,0.4-1,0.1c-0.5-0.5-1-1-1.4-1.5
		c-0.4-0.4-0.4-1,0-1.5c2.3-3.1,5.4-5.1,9.2-5.8c0.3,0,0.6-0.1,0.8-0.1C18.1,12.5,18.6,12.5,19.1,12.5z"/>
	<path class="st0" d="M19.1,20.1c2.8,0.1,5,1.2,6.8,3.3c0.4,0.5,0.4,1.1-0.1,1.5c-0.4,0.5-0.9,0.9-1.3,1.4c-0.4,0.4-0.8,0.4-1.1-0.1
		c-0.3-0.4-0.6-0.7-1-1.1c-2.3-1.9-5.6-1.6-7.6,0.8c-0.1,0.1-0.2,0.2-0.2,0.3c-0.3,0.4-0.8,0.5-1.1,0.1c-0.4-0.4-0.9-0.9-1.3-1.3
		c-0.5-0.5-0.5-1.1,0-1.6C14,21.2,16.3,20.1,19.1,20.1z"/>
</g>
</svg>
