<?xml version="1.0" encoding="utf-8"?>
<!-- Generator: Adobe Illustrator 22.0.1, SVG Export Plug-In . SVG Version: 6.00 Build 0)  -->
<svg version="1.1" id="Capa_1" xmlns="http://www.w3.org/2000/svg" xmlns:xlink="http://www.w3.org/1999/xlink" x="0px" y="0px"
	 viewBox="0 0 121.1 117" style="enable-background:new 0 0 121.1 117;" xml:space="preserve">
<style type="text/css">
	.st0{fill:#FFFFFF;fill-opacity:0.2;stroke:#FFCE00;stroke-width:4;stroke-miterlimit:10;}
	.st1{fill:#FFCE00;}
	.st2{fill:#FFFFFF;fill-opacity:0.2;stroke:#FFCE00;stroke-width:3.8333;stroke-miterlimit:10;}
	.st3{clip-path:url(#SVGID_2_);}
	.st4{fill:#FFFFFF;}
	.st5{fill:#242424;}
	.st6{fill:#262626;}
	.st7{fill:#FF3A4B;}
	.st8{fill:#00C114;}
	.st9{fill:#BCBCBC;}
	.st10{fill:#00B200;}
	.st11{fill:#000EB6;}
	.st12{fill:#2A2A2A;}
	.st13{fill:#FCCE00;}
	.st14{fill:#001FFF;}
	.st15{fill:#808080;}
</style>
<g>
	<path class="st12" d="M79.4,22.6c-1,0-1.9-0.5-2.4-1.5l-5.1-10c-0.6-1.3-0.1-2.9,1.2-3.7c1.3-0.6,2.9-0.1,3.7,1.2l5.1,10
		c0.6,1.3,0.1,2.9-1.2,3.7C80.2,22.5,79.7,22.6,79.4,22.6z"/>
	<path class="st12" d="M88.7,22c-0.3,0-0.6,0-0.9-0.1c-1.4-0.5-2.2-2.1-1.6-3.5l3.7-10.6c0.5-1.4,2.1-2.2,3.5-1.6
		c1.4,0.5,2.2,2.1,1.6,3.5l-3.7,10.5C90.9,21.3,89.8,22,88.7,22z"/>
	<path class="st12" d="M95.7,28.4c-1.1,0-2.1-0.5-2.5-1.6c-0.6-1.4,0-2.9,1.4-3.6l10.2-4.7c1.4-0.6,2.9,0,3.6,1.4
		c0.6,1.4,0,2.9-1.4,3.6l-10.2,4.7C96.4,28.2,96,28.4,95.7,28.4z"/>
	<path class="st12" d="M101.1,62.9c-0.6-0.8-1.4-1.3-2.2-1.7c2.3-2.7,2.6-6.7,0.6-9.6c-0.9-1.4-2.2-2.4-3.6-3
		c1.2-2.8,0.8-6.2-1.4-8.7c-2.7-3-7.2-3.5-10.5-1.3c-0.5-1.2-1.3-2.3-2.4-3.1l0,0c-3-2.5-7.7-2.3-10.6,0.4l-1.2,1.1
		c-0.4-0.9-1.1-1.5-1.8-2.2l0,0c-3-2.5-7.7-2.3-10.6,0.4L45.7,45.9c-1-1.9-2.7-3.5-5-4c-2.2-0.6-4.7-0.2-6.5,1
		c-0.9,0.5-1.6,1.3-2.3,2.2c-1-1.8-2.7-3.4-4.9-3.9c-2.2-0.6-4.7-0.2-6.5,1c-1.9,1.3-3.2,3.2-3.6,5.5c0,0.1,0,0.3,0,0.4l0.2,26.5
		c-0.3,2.1-1.4,4-2.9,5.3c-1.1,1-1.7,2.3-1.7,3.8s0.4,2.8,1.4,3.9l19.1,21.1c1,1.1,2.3,1.7,3.8,1.7c0.1,0,0.2,0,0.3,0
		c1.4,0,2.7-0.5,3.7-1.4l1-0.9c0.8-0.6,1.5-1.2,2.4-1.6l2.5,2.8c1,1.1,2.3,1.7,3.8,1.7c0.1,0,0.2,0,0.3,0c1.4,0,2.7-0.5,3.7-1.4
		l1-0.9c1.1-1,2.3-1.6,3.6-2.1c8-2.4,14.6-8.2,14.6-8.3l26.8-24.1C103.8,71.3,104,66.2,101.1,62.9z M61,39.3c1.1-1,2.6-1.1,3.6-0.2
		c0.5,0.4,0.9,1.1,1,1.8V41L49,55.9c-0.3,0.2-0.5,0.2-0.8,0.2c-0.1,0-0.4-0.2-0.5-0.5L47,52.2L61,39.3z M38.1,104.3l-1.1,0.9
		L17.9,84c2.5-2.3,4.2-5.4,4.7-8.8c0-0.1,0-0.3,0-0.4l-0.3-26.4c0.1-0.6,0.5-1.3,1.2-1.6c0.6-0.4,1.4-0.5,2.2-0.3
		c1.1,0.3,1.8,1.3,1.9,2.5c0.1,1.1,0.1,2.2,0.4,3.2l0.9,3.9c0.3,1.3,1,2.4,1.8,3.1l0.2,16c-0.3,2.1-1.4,4-2.9,5.3
		c-1.1,1-1.7,2.3-1.7,3.8c0,1.5,0.4,2.8,1.4,3.9l12.9,14.3C39.6,103,38.9,103.6,38.1,104.3z M96.8,70.2L70,94.6
		c-0.1,0-5.7,5.2-12.5,7.1c-2.1,0.6-4.1,1.7-5.7,3.2l-1.1,0.9L31.5,84.6c2.5-2.3,4.2-5.4,4.7-8.8c0-0.1,0-0.3,0-0.4L35.8,49
		c0.1-0.6,0.5-1.3,1.2-1.6c0.6-0.4,1.4-0.5,2.2-0.3c1.1,0.3,1.8,1.3,1.9,2.5c0.1,1.1,0.1,2.2,0.4,3.2l0.9,3.9
		c0.5,2.2,2.1,3.9,4.2,4.5c2.2,0.6,4.3,0.2,6.1-1.3l22-20c1.1-1,2.6-1.1,3.6-0.2c0.5,0.4,0.9,1.1,1,1.8c0.1,0.6-0.1,1.3-0.5,1.8
		c-0.4,0.4-2.9,2.7-14.1,12.8l-0.4,0.3c-1.1,1-1.2,2.7-0.2,3.8c1,1.1,2.7,1.2,3.8,0.2l18.9-17.2l0.1-0.1c1.1-0.9,2.7-0.8,3.6,0.3
		c1,1.1,0.9,2.7-0.2,3.7l-18,16.6c-0.6,0.6-1.1,1-1.3,1.2l0,0c-1.1,1-1.2,2.7-0.2,3.8s2.7,1.2,3.8,0.2l0.2-0.2
		c1.8-1.6,15.4-14,16.4-14.9c0.5-0.4,1.3-0.5,1.9-0.4c0.8,0.1,1.4,0.5,1.7,1.2c0.6,1.1,0.4,2.6-0.5,3.5L78,72.7
		c-1.1,1-1.2,2.7-0.2,3.8c1,1.1,2.7,1.2,3.8,0.2l1-0.9c6.6-6.1,10.3-9.3,10.8-9.8c1.1-0.8,2.6-0.6,3.5,0.3
		C98,67.6,97.9,69.2,96.8,70.2z"/>
</g>
</svg>
