<?xml version="1.0" encoding="utf-8"?>
<!-- Generator: Adobe Illustrator 22.0.1, SVG Export Plug-In . SVG Version: 6.00 Build 0)  -->
<svg version="1.1" id="Capa_1" xmlns="http://www.w3.org/2000/svg" xmlns:xlink="http://www.w3.org/1999/xlink" x="0px" y="0px"
	 viewBox="0 0 38.1 36.8" style="enable-background:new 0 0 38.1 36.8;" xml:space="preserve">
<style type="text/css">
	.st0{fill:#FFFFFF;fill-opacity:0.2;stroke:#FFCE00;stroke-width:4;stroke-miterlimit:10;}
	.st1{fill:#FFCE00;}
	.st2{fill:#FFFFFF;fill-opacity:0.2;stroke:#FFCE00;stroke-width:3.8333;stroke-miterlimit:10;}
	.st3{clip-path:url(#SVGID_2_);}
	.st4{fill:#FFFFFF;}
	.st5{fill:#242424;}
	.st6{fill:#262626;}
	.st7{fill:#FF3A4B;}
	.st8{fill:#00C114;}
	.st9{fill:#BCBCBC;}
	.st10{fill:#00B200;}
	.st11{fill:#000EB6;}
	.st12{fill:#2A2A2A;}
	.st13{fill:#FCCE00;}
	.st14{fill:#001FFF;}
</style>
<g transform="translate(0,-952.36218)">
	<g>
		<path class="st14" d="M34,985.2c0.7-0.1,1.3-0.7,1.3-1.4v-24.1c0-1.8-1.5-3.2-3.2-3.2h-26c-1.8,0-3.2,1.5-3.2,3.2v15.8
			c0,1.8,1.5,3.2,3.2,3.2H26l7,6.2C33.3,985.1,33.7,985.2,34,985.2z M32.5,980.7l-5.1-4.5c-0.3-0.2-0.6-0.3-0.9-0.3H6.1
			c-0.3,0-0.5-0.2-0.5-0.5v-15.8c0-0.3,0.2-0.5,0.5-0.5h26c0.3,0,0.5,0.2,0.5,0.5V980.7z M27,969.8c1.3,0,2.3-1,2.3-2.3
			c0-1.3-1-2.3-2.3-2.3c-1.3,0-2.3,1-2.3,2.3C24.6,968.8,25.7,969.8,27,969.8z M19.1,969.8c1.3,0,2.3-1,2.3-2.3c0-1.3-1-2.3-2.3-2.3
			c-1.3,0-2.3,1-2.3,2.3C16.7,968.8,17.8,969.8,19.1,969.8z M11.2,969.8c1.3,0,2.3-1,2.3-2.3c0-1.3-1-2.3-2.3-2.3
			c-1.3,0-2.3,1-2.3,2.3C8.9,968.8,9.9,969.8,11.2,969.8z"/>
	</g>
</g>
</svg>
