<?xml version="1.0" encoding="utf-8"?>
<!-- Generator: Adobe Illustrator 22.0.1, SVG Export Plug-In . SVG Version: 6.00 Build 0)  -->
<svg version="1.1" id="Capa_1" xmlns="http://www.w3.org/2000/svg" xmlns:xlink="http://www.w3.org/1999/xlink" x="0px" y="0px"
	 viewBox="0 0 38.1 36.8" style="enable-background:new 0 0 38.1 36.8;" xml:space="preserve">
<style type="text/css">
	.st0{fill:#2A2A2A;}
</style>
<path class="st0" d="M19.1,1.9c-5.5,0-9.9,4.4-9.9,9.9v3.4H9c-1.4,0-2.6,1.2-2.6,2.6v14.4c0,1.4,1.2,2.6,2.6,2.6h20.1
	c1.4,0,2.6-1.2,2.6-2.6V17.9c0-1.4-1.2-2.6-2.6-2.6H29v-3.4C29,6.4,24.6,1.9,19.1,1.9z M13.5,11.9c0-3.1,2.5-5.6,5.6-5.6
	s5.6,2.5,5.6,5.6v3.4H13.5V11.9z"/>
</svg>
