<?xml version="1.0" encoding="utf-8"?>
<!-- Generator: Adobe Illustrator 22.0.1, SVG Export Plug-In . SVG Version: 6.00 Build 0)  -->
<svg version="1.1" id="Capa_1" xmlns="http://www.w3.org/2000/svg" xmlns:xlink="http://www.w3.org/1999/xlink" x="0px" y="0px"
	 viewBox="0 0 319 106.9" style="enable-background:new 0 0 319 106.9;" xml:space="preserve">
<style type="text/css">
	.st0{fill:#FFFFFF;fill-opacity:0.2;stroke:#FFCE00;stroke-width:4;stroke-miterlimit:10;}
	.st1{fill:#FFCE00;}
	.st2{fill:#FFFFFF;fill-opacity:0.2;stroke:#FFCE00;stroke-width:3.8333;stroke-miterlimit:10;}
	.st3{clip-path:url(#SVGID_2_);}
	.st4{fill:#FFFFFF;}
	.st5{fill:#242424;}
	.st6{fill:#262626;}
	.st7{fill:#FF3A4B;}
	.st8{fill:#00C114;}
	.st9{fill:#BCBCBC;}
	.st10{fill:#00B200;}
	.st11{fill:#000EB6;}
	.st12{fill:#2A2A2A;}
	.st13{fill:#FCCE00;}
</style>
<path class="st13" d="M17.6,65.5h101.9c6.6,0,12-5.4,12-12V37.6c0-2.1,1.5-4,3.6-4.2c2.4-0.2,4.4,1.6,4.4,4l0,47.6
	c0,6.6,5.2,12.3,11.8,12.4c6.7,0.1,12.2-5.3,12.2-12l0-63.8c0-2.1,1.5-4,3.6-4.2c2.4-0.2,4.4,1.6,4.4,4l0,47.6
	c0,6.6,5.2,12.3,11.8,12.4c6.7,0.1,12.2-5.3,12.2-12v-16c0-2.2,1.8-4,4-4l101.7,0c2.1,0,4-1.5,4.2-3.6c0.2-2.4-1.6-4.4-4-4.4H199.5
	c-6.6,0-12,5.4-12,12v15.8c0,2.1-1.5,4-3.6,4.2c-2.4,0.2-4.4-1.6-4.4-4V21.9c0-6.6-5.2-12.3-11.8-12.4c-6.7-0.1-12.2,5.3-12.2,12
	l0,63.8c0,2.1-1.5,4-3.6,4.2c-2.4,0.2-4.4-1.6-4.4-4V37.9c0-6.6-5.2-12.3-11.8-12.4c-6.7-0.1-12.2,5.3-12.2,12v16c0,2.2-1.8,4-4,4
	l-101.9,0c-2.2,0-4,1.8-4,4v0C13.6,63.7,15.4,65.5,17.6,65.5z"/>
</svg>
