<?xml version="1.0" encoding="utf-8"?>
<!-- Generator: Adobe Illustrator 22.0.1, SVG Export Plug-In . SVG Version: 6.00 Build 0)  -->
<svg version="1.1" id="Capa_1" xmlns="http://www.w3.org/2000/svg" xmlns:xlink="http://www.w3.org/1999/xlink" x="0px" y="0px"
	 viewBox="0 0 160 160" style="enable-background:new 0 0 160 160;" xml:space="preserve">
<style type="text/css">
	.st0{fill:#FFFFFF;fill-opacity:0.2;stroke:#FFCE00;stroke-width:4;stroke-miterlimit:10;}
	.st1{fill:#FFCE00;}
	.st2{fill:#FFFFFF;fill-opacity:0.2;stroke:#FFCE00;stroke-width:3.8333;stroke-miterlimit:10;}
	.st3{clip-path:url(#SVGID_2_);}
	.st4{fill:#FFFFFF;}
	.st5{fill:#242424;}
	.st6{fill:#262626;}
	.st7{fill:#FF3A4B;}
	.st8{fill:#00C114;}
	.st9{fill:#BCBCBC;}
	.st10{fill:#00B200;}
	.st11{fill:#000EB6;}
	.st12{fill:#2A2A2A;}
</style>
<g>
	<g>
		<path class="st12" d="M127.6,15.2c-3-1.7-6.6-1.7-9.4,0L65.8,46H42.9c-8.3,0-15,6.8-15,15v38.1c0,8.3,6.8,15,15,15h22.9l52.2,30.6
			c1.5,0.9,3.2,1.3,4.7,1.3c1.7,0,3.2-0.4,4.7-1.3c3-1.7,4.7-4.9,4.7-8.1V23.3C132.3,19.9,130.4,16.9,127.6,15.2z M39.2,98.9V61
			c0-2.1,1.7-3.8,3.8-3.8h18.8v45.6H42.9C40.8,102.7,39.2,101.2,39.2,98.9z M121,133.3l-47.9-28.2V54.6L121,26.5V133.3z"/>
	</g>
	<g>
		<path class="st12" d="M83.3,65.7c0.9,1.9,3,3,5.1,3c0.9,0,1.7-0.2,2.6-0.6l19.3-10c2.8-1.5,3.8-4.9,2.4-7.5
			c-1.5-2.8-4.9-3.9-7.5-2.4l-19.3,10C82.9,59.7,81.8,63.1,83.3,65.7z"/>
	</g>
</g>
</svg>
