<?xml version="1.0" encoding="utf-8"?>
<!-- Generator: Adobe Illustrator 22.0.1, SVG Export Plug-In . SVG Version: 6.00 Build 0)  -->
<svg version="1.1" id="Capa_1" xmlns="http://www.w3.org/2000/svg" xmlns:xlink="http://www.w3.org/1999/xlink" x="0px" y="0px"
	 viewBox="0 0 121.1 117" style="enable-background:new 0 0 121.1 117;" xml:space="preserve">
<style type="text/css">
	.st0{fill:#FFFFFF;fill-opacity:0.2;stroke:#FFCE00;stroke-width:4;stroke-miterlimit:10;}
	.st1{fill:#FFCE00;}
	.st2{fill:#FFFFFF;fill-opacity:0.2;stroke:#FFCE00;stroke-width:3.8333;stroke-miterlimit:10;}
	.st3{clip-path:url(#SVGID_2_);}
	.st4{fill:#FFFFFF;}
	.st5{fill:#242424;}
	.st6{fill:#262626;}
	.st7{fill:#FF3A4B;}
	.st8{fill:#00C114;}
	.st9{fill:#BCBCBC;}
	.st10{fill:#00B200;}
</style>
<g>
	<path d="M72.8,57.3c-0.5,0-0.9,0-1.4,0.1c0.1-0.5,0.1-0.9,0.1-1.4c0-4.5-2.9-8.5-7.1-9.9c-2-0.6-5-1.4-8.4-1.4h-0.1
		c1.2-1.9,2.8-4.5,4.8-7.1c4-5.2,3.6-10.4-1-13.9c-2.1-1.6-6.1-3.3-11.5,0.4c0.1-0.3,0.1-0.7,0.2-1.1c1-6.6-3.2-10.5-7.6-11.4
		c-4.9-0.9-9.2,3-10.3,7.2c-0.5,1.8-1.2,4.7-1.9,8.2c-1.1-0.3-2.4-0.5-4.2-0.4c-3.8,0.3-8.4,3.1-8.7,9.9c-0.4,8.2,3.8,30.6,8.5,44.6
		c0.6,2.3,1.4,4.5,2.5,6.8c5.1,10.6,13.6,16.3,26,17.4c0.8,0.1,1.8,0.1,2.8,0.1c6.7,0,16.6-2.2,23.6-13.3c4.7-7.5,6.4-19.7,3.7-27.8
		C81.3,60.1,77.3,57.3,72.8,57.3z M34.5,20c0.6-2.3,3.1-4.6,5.4-4.1c2.3,0.4,4.8,2.4,4.2,6.5c-0.6,3.7-0.8,5.4-0.8,6.1
		c-3.7,3.9-9.3,10.5-13.8,18.9C30.9,35.5,33.3,24.4,34.5,20z M24.2,60.6c-0.2,0.9-0.4,1.8-0.6,2.6c-2.4-10.7-4.1-21.5-3.8-26.5
		c0.3-5.1,3.7-5.8,4.8-5.9c1.6-0.1,2.4,0.1,3,0.4c-1.6,8.5-3.2,19.4-3.5,29.2C24.2,60.6,24.2,60.6,24.2,60.6z M75.3,89.9
		c-6.5,10.3-15.8,11.8-22.4,11.2c-6.6-0.6-16-2.7-21.8-13.7c0-0.2-0.1-0.3-0.2-0.5c-0.9-1.8-1.8-4.2-2.7-6.9
		c-5.9-22.3,13.2-43.8,19.7-50.3c2.5-2.5,4.7-3.7,6.6-3.7c0.9,0,1.8,0.3,2.6,0.9c1,0.7,3.9,3,0.2,8c-3.4,4.4-5.7,8.5-6.7,10.3
		c-5.3,1.2-11.1,4.6-15.8,12.3c-0.6,1-0.3,2.3,0.7,2.9c1,0.6,2.3,0.3,2.9-0.7C46.3,47,57.2,48.2,63,50.1c2.9,0.9,4.2,3.6,4.2,5.8
		c0,1.6-0.6,3.2-1.8,4.4c-1.6,1.6-4.1,2.2-6.2,1.5c-4-1.3-8.8,0.1-12.2,3.5c-5,5-5.7,12.3-1.6,16.8c2.5,2.8,6.4,4.5,10.3,4.6
		c3.1,0.1,5.8-0.9,7.6-2.7c4.4-4.4,4.9-10.5,3.6-14.7c-0.7-2.1-0.1-4.5,1.5-6.2c1.2-1.2,2.7-1.8,4.4-1.8c2.7,0,5,1.6,5.8,4.2
		C80.8,72.6,79.4,83.5,75.3,89.9z M62.8,70.8c1,2.9,0.6,7.3-2.5,10.3c-1,1-2.6,1.5-4.5,1.4c-2.8-0.1-5.5-1.3-7.2-3.2
		c-2.8-3.1-1.4-8.1,1.4-11c1.8-1.8,4-2.8,6.1-2.8c0.6,0,1.2,0.1,1.8,0.3c1.5,0.5,3,0.6,4.5,0.4C62.2,67.8,62.3,69.3,62.8,70.8z"/>
	<path d="M70.5,36.6c0.3,0.1,0.6,0.2,0.9,0.2c0.8,0,1.6-0.5,2-1.3l5.8-13.2c0.5-1.1,0-2.3-1.1-2.8c-1.1-0.5-2.3,0-2.8,1.1l-5.8,13.2
		C68.9,34.8,69.4,36.1,70.5,36.6z"/>
	<path d="M97.5,35.1c-0.7-1-2-1.2-3-0.5L83,43c-1,0.7-1.2,2-0.5,3c0.4,0.6,1.1,0.9,1.7,0.9c0.4,0,0.9-0.1,1.3-0.4L97.1,38
		C98,37.3,98.2,36,97.5,35.1z"/>
	<path d="M105.6,58.4c-0.2-1.2-1.3-2-2.4-1.8l-12.4,1.8c-1.2,0.2-2,1.3-1.8,2.4c0.2,1.1,1.1,1.8,2.1,1.8c0.1,0,0.2,0,0.3,0l12.4-1.8
		C104.9,60.7,105.7,59.6,105.6,58.4z"/>
</g>
</svg>
