<?xml version="1.0" encoding="utf-8"?>
<!-- Generator: Adobe Illustrator 22.0.1, SVG Export Plug-In . SVG Version: 6.00 Build 0)  -->
<svg version="1.1" id="Capa_1" xmlns="http://www.w3.org/2000/svg" xmlns:xlink="http://www.w3.org/1999/xlink" x="0px" y="0px"
	 viewBox="0 0 121.1 117" style="enable-background:new 0 0 121.1 117;" xml:space="preserve">
<style type="text/css">
	.st0{fill:#FFFFFF;fill-opacity:0.2;stroke:#FFCE00;stroke-width:4;stroke-miterlimit:10;}
	.st1{fill:#FFCE00;}
	.st2{fill:#FFFFFF;fill-opacity:0.2;stroke:#FFCE00;stroke-width:3.8333;stroke-miterlimit:10;}
	.st3{clip-path:url(#SVGID_2_);}
	.st4{fill:#FFFFFF;}
	.st5{fill:#242424;}
	.st6{fill:#262626;}
	.st7{fill:#FF3A4B;}
	.st8{fill:#00C114;}
	.st9{fill:#BCBCBC;}
	.st10{fill:#00B200;}
	.st11{fill:#000EB6;}
	.st12{fill:#2A2A2A;}
	.st13{fill:#FCCE00;}
	.st14{fill:#001FFF;}
	.st15{fill:#AA2737;}
	.st16{fill:#808080;}
</style>
<g>
	<path class="st15" d="M90.3,44.6H30.9c-4.9,0-8.9,4-8.9,8.9v48.3c0,4.9,4,8.9,8.9,8.9h59.4c4.9,0,8.8-4,8.8-8.9V53.5
		C99.1,48.6,95.1,44.6,90.3,44.6z M27.7,68.4l9.5-13.5h4.6l-9.5,13.5H27.7z M40.6,68.4l9.5-13.5h4.6l-9.5,13.5H40.6z M63,54.9h4.6
		l-9.5,13.5h-4.6L63,54.9z M63.3,89.4V103h-5.4V89.4c-1.9-1-3.2-2.9-3.2-5.2c0-3.3,2.6-5.9,5.9-5.9c3.3,0,5.9,2.6,5.9,5.9
		C66.5,86.5,65.2,88.5,63.3,89.4z M66.5,68.4L76,54.9h4.6l-9.5,13.5H66.5z M84,68.4h-4.6l9.5-13.5h4.6L84,68.4z"/>
	<path class="st15" d="M44.4,25.8c0-2.3,1-4.6,2.7-6.2C49,17.9,51.5,17,54,17h13.1c2.5,0,5,1,6.9,2.7c1.7,1.6,2.7,3.8,2.7,6.2v12.5
		h10.5V25.7c0-5.2-2.3-10.1-6.1-13.7c-3.9-3.6-9.1-5.6-14.4-5.6H54.4c-5.3,0-10.5,2-14.3,5.6c-3.9,3.6-6.2,8.5-6.2,13.7v12.9h10.5
		V25.8z"/>
</g>
</svg>
