<?xml version="1.0" encoding="utf-8"?>
<!-- Generator: Adobe Illustrator 22.0.1, SVG Export Plug-In . SVG Version: 6.00 Build 0)  -->
<svg version="1.1" id="Capa_1" xmlns="http://www.w3.org/2000/svg" xmlns:xlink="http://www.w3.org/1999/xlink" x="0px" y="0px"
	 viewBox="0 0 38.1 36.8" style="enable-background:new 0 0 38.1 36.8;" xml:space="preserve">
<style type="text/css">
	.st0{fill:#FFFFFF;fill-opacity:0.2;stroke:#FFCE00;stroke-width:4;stroke-miterlimit:10;}
	.st1{fill:#FFCE00;}
	.st2{fill:#FFFFFF;fill-opacity:0.2;stroke:#FFCE00;stroke-width:3.8333;stroke-miterlimit:10;}
	.st3{clip-path:url(#SVGID_2_);}
	.st4{fill:#FFFFFF;}
	.st5{fill:#242424;}
	.st6{fill:#262626;}
	.st7{fill:#FF3A4B;}
	.st8{fill:#00C114;}
	.st9{fill:#BCBCBC;}
	.st10{fill:#00B200;}
	.st11{fill:#000EB6;}
	.st12{fill:#2A2A2A;}
	.st13{fill:#FCCE00;}
	.st14{fill:#001FFF;}
	.st15{fill:#808080;}
</style>
<g>
	<path class="st15" d="M34.3,30.1c-1.1-5.9-6.2-10.2-12.2-10.2H16c-6.1,0-11.3,4.4-12.3,10.4l0,0c-0.5,3,1.9,5.7,4.9,5.7h20.9
		c3.1,0,5.4-2.8,4.9-5.8L34.3,30.1z"/>
	<path class="st15" d="M12.7,15.1c3.5,3.5,9.2,3.6,12.8,0.2l0.1-0.1c3.1-3,3.4-7.8,0.7-11.2l0,0C22.6-0.5,15.6-0.4,12,4.2l0,0
		C9.5,7.5,9.7,12.1,12.7,15.1L12.7,15.1z"/>
</g>
</svg>
